<?xml version="1.0" encoding="UTF-8"?>
<!DOCTYPE svg PUBLIC "-//W3C//DTD SVG 1.1//EN" "http://www.w3.org/Graphics/SVG/1.1/DTD/svg11.dtd">
<!-- Creator: CorelDRAW 2019 (64-Bit) -->
<svg xmlns="http://www.w3.org/2000/svg" xml:space="preserve" width="310px" height="310px" version="1.1" style="shape-rendering:geometricPrecision; text-rendering:geometricPrecision; image-rendering:optimizeQuality; fill-rule:evenodd; clip-rule:evenodd"
viewBox="0 0 27.21 27.2"
 xmlns:xlink="http://www.w3.org/1999/xlink">
 <defs>
  <style type="text/css">
   <![CDATA[
    .fil1 {fill:#006DA1}
    .fil0 {fill:#C12223}
    .fil2 {fill:#FEFEFE}
   ]]>
  </style>
 </defs>
 <g id="Layer_x0020_1">
  <metadata id="CorelCorpID_0Corel-Layer"/>
  <g id="_3209520619888">
   <circle class="fil0" cx="13.6" cy="13.6" r="13.6"/>
   <path class="fil1" d="M14.39 0.02c7.15,0.4 12.82,6.33 12.82,13.58 0,7.51 -6.09,13.59 -13.6,13.59 -1,0 -1.99,-0.11 -2.93,-0.31l0.03 0 3.68 -26.86z"/>
   <path class="fil2" d="M3.43 12.45l0 -6.67 1.41 0 0 5.59 0.83 0 0 1.08 -2.24 0zm2.78 0l0 -6.67 2.24 0 0 1.08 -0.84 0 0 1.39 0.84 0 0 1.08 -0.84 0 0 2.04 0.84 0 0 1.08 -2.24 0zm3.38 0l-0.87 -6.67 1.33 0 0.32 4.44 0.33 -4.44 1.33 0 -0.88 6.67 -1.56 0z"/>
   <path class="fil2" d="M13.24 19.13l0 -6.67 2.24 0 0 1.07 -0.84 0 0 1.39 0.84 0 0 1.08 -0.84 0 0 3.13 -1.4 0zm2.77 0l0 -6.67 2.24 0 0 1.07 -0.83 0 0 1.39 0.83 0 0 1.08 -0.83 0 0 2.04 0.83 0 0 1.09 -2.24 0zm2.77 -2.68l1.41 0 0 1.3c0,0.12 0.02,0.21 0.05,0.26 0.03,0.05 0.09,0.07 0.16,0.07 0.07,0 0.12,-0.02 0.16,-0.06 0.04,-0.03 0.06,-0.08 0.06,-0.14l0 -0.13 0 -0.99c0,-0.13 -0.02,-0.23 -0.06,-0.29 -0.04,-0.06 -0.11,-0.12 -0.22,-0.18l-0.95 -0.53c-0.21,-0.12 -0.37,-0.27 -0.47,-0.46 -0.09,-0.18 -0.14,-0.43 -0.14,-0.74l0 -0.77c0,-0.6 0.09,-0.98 0.27,-1.14 0.18,-0.16 0.63,-0.23 1.34,-0.23 0.67,0 1.11,0.07 1.31,0.21 0.2,0.14 0.3,0.39 0.3,0.75l0 0.41 0 0.99 -1.39 0 0 -0.95c0,-0.13 -0.02,-0.22 -0.05,-0.27 -0.03,-0.04 -0.09,-0.06 -0.17,-0.06 -0.07,0 -0.12,0.02 -0.15,0.07 -0.03,0.05 -0.05,0.13 -0.05,0.26l0 0.63c0,0.13 0.02,0.22 0.06,0.28 0.03,0.07 0.11,0.13 0.22,0.19l0.87 0.47c0.24,0.12 0.41,0.27 0.51,0.44 0.1,0.18 0.15,0.41 0.15,0.71l0 1.52c0,0.22 -0.02,0.39 -0.04,0.5 -0.03,0.12 -0.07,0.21 -0.14,0.29 -0.08,0.12 -0.21,0.2 -0.39,0.25 -0.18,0.04 -0.52,0.06 -1.02,0.06 -0.73,0 -1.18,-0.08 -1.36,-0.24 -0.18,-0.17 -0.27,-0.55 -0.27,-1.14l0 -1.34zm4.33 2.68l0 -5.57 -0.73 0 0 -1.1 2.85 0 0 1.1 -0.72 0 0 5.57 -1.4 0z"/>
   <path class="fil2" d="M14.4 0.02c-1.24,8.96 -2.46,17.91 -3.69,26.87 -0.24,-0.05 -0.47,-0.11 -0.71,-0.17l3.58 -26.72c0.12,0 0.23,0 0.35,0 0.15,0.01 0.31,0.01 0.47,0.02z"/>
  </g>
 </g>
</svg>
